<svg xmlns="http://www.w3.org/2000/svg" viewBox="0 0 48 48" width="24px" height="24px">
  <path fill="#4285F4" d="M44.5,20H24v8.5h11.9C34.8,33.4,30,36,24,36c-6.6,0-12-5.4-12-12s5.4-12,12-12c2.9,0,5.6,1,7.7,2.7l6.3-6.3C34.1,4.8,29.3,3,24,3C12.3,3,3,12.3,3,24s9.3,21,21,21c10.4,0,18.8-7.2,20.4-16.5C44.9,26.3,45,23.2,44.5,20z"/>
  <path fill="#34A853" d="M6.8,14.7l7,5.1C15.7,15.8,19.5,13,24,13c2.9,0,5.6,1,7.7,2.7l6.3-6.3C34.1,4.8,29.3,3,24,3C16,3,9.1,7.6,6.8,14.7z"/>
  <path fill="#FBBC05" d="M24,45c5.5,0,10.3-1.9,14.1-5.2l-6.6-5.4C29.4,35.8,26.8,37,24,37c-6.1,0-11.4-3.9-13.2-9.3l-7,5.4C7.7,40.4,15.2,45,24,45z"/>
  <path fill="#EA4335" d="M44.5,20H24v8.5h11.9c-1.1,3.1-3.2,5.6-6.1,7.1l0,0l6.6,5.4c-1.4,1-6.1,4.5-12.4,4.5C24,45,15.2,40.4,10.7,36.4l-7-5.4l-0.1-0.1l0,0L6.8,14.7C6.8,14.7,44.5,20,44.5,20z"/>
</svg>
